<svg id="Layer_1" data-name="Layer 1" xmlns="http://www.w3.org/2000/svg" viewBox="0 0 49.02 49"><path d="M24.52,48A23.5,23.5,0,1,1,48,24.5,23.52,23.52,0,0,1,24.52,48Zm0-27.5A10.95,10.95,0,0,0,13.55,31.44c0,.55,0,1.14-.05,1.75-.11,2.49-.23,5.32,1.22,6.94,1.2,1.33,3.19,1.48,4.59,1.48.91,0,1.86-.07,2.77-.14s1.68-.13,2.41-.13,1.43,0,2.23.1,1.8.11,2.7.11c1.49,0,3.61-.14,4.83-1.41,1.55-1.61,1.4-4.33,1.26-6.73,0-.68-.08-1.35-.08-2A11,11,0,0,0,24.49,20.5Zm0-15A6.5,6.5,0,1,0,31,12,6.51,6.51,0,0,0,24.52,5.5Z"/><path d="M24.52,1.5a23,23,0,1,1-23,23,23,23,0,0,1,23-23m0,17.5a7,7,0,1,0-7-7,7,7,0,0,0,7,7M19.31,42.11c.93,0,1.89-.07,2.81-.14s1.66-.13,2.37-.13,1.4,0,2.2.1,1.82.11,2.73.11c1.58,0,3.83-.16,5.19-1.56,1.71-1.77,1.54-4.61,1.4-7.11,0-.69-.08-1.34-.08-1.94a11.44,11.44,0,1,0-22.88,0c0,.53,0,1.11-.05,1.73-.11,2.59-.24,5.52,1.35,7.29,1.33,1.48,3.47,1.65,5,1.65M24.52.5a24,24,0,1,0,24,24,24,24,0,0,0-24-24Zm0,17.5a6,6,0,1,1,6-6,6,6,0,0,1-6,6ZM19.31,41.11c-1.71,0-3.27-.26-4.21-1.32-1.67-1.85-1-5.67-1-8.35a10.44,10.44,0,0,1,20.88,0c0,2.81.77,6.47-1,8.35-1,1-2.66,1.26-4.47,1.26s-3.5-.21-4.93-.21-3.44.27-5.18.27Z"/></svg>