<?xml version="1.0" encoding="UTF-8"?>
<svg xmlns="http://www.w3.org/2000/svg" xmlns:xlink="http://www.w3.org/1999/xlink" viewBox="0 0 50 50" width="50px" height="50px">
<g id="surface868129">
<path style=" stroke:none;fill-rule:nonzero;fill:rgb(94.901961%,51.764709%,50.980395%);fill-opacity:1;" d="M 14.34375 1.9375 C 13.871094 1.9375 13.441406 2.289062 13.34375 2.75 C 13.246094 3.214844 13.503906 3.683594 13.9375 3.875 C 13.976562 3.890625 17.796875 5.613281 22.25 10.28125 C 24.246094 12.375 26.347656 15.148438 24.9375 16.53125 C 24.90625 16.566406 24.738281 16.757812 24.125 17.375 C 24.066406 17.433594 24.046875 17.476562 24 17.53125 L 23.96875 17.5625 L 31.625 25.21875 L 32.34375 24.53125 C 32.359375 24.515625 32.363281 24.484375 32.375 24.46875 L 33.5 23.34375 C 33.550781 23.394531 33.828125 23.671875 34.90625 24.75 C 35.3125 25.15625 35.214844 26.160156 35.09375 26.40625 C 34.71875 27.15625 34.789062 27.945312 35.28125 28.4375 C 35.476562 28.632812 38.75 31.90625 38.75 31.90625 C 39.289062 32.445312 40.007812 32.71875 40.71875 32.71875 C 41.429688 32.71875 42.117188 32.445312 42.65625 31.90625 L 48.1875 26.40625 C 49.269531 25.328125 49.265625 23.550781 48.1875 22.46875 L 44.71875 19 C 44.214844 18.496094 43.457031 18.390625 42.8125 18.71875 C 42.507812 18.871094 41.441406 18.972656 41.0625 18.59375 L 39.625 17.15625 C 39.953125 16.691406 40.128906 16.140625 40.125 15.5625 C 40.128906 14.816406 39.839844 14.117188 39.3125 13.59375 L 35.5625 9.84375 C 35.542969 9.824219 35.476562 9.78125 35.4375 9.75 L 34.65625 8.96875 C 33.023438 7.335938 31.511719 5.792969 31.125 5.40625 C 27.8125 2.089844 15.710938 1.941406 14.34375 1.9375 Z M 22.5625 18.96875 L 3 38.53125 C 1.921875 39.609375 1.921875 41.355469 3 42.4375 L 6.75 46.1875 C 7.289062 46.726562 8.007812 47 8.71875 47 C 9.429688 47 10.117188 46.726562 10.65625 46.1875 L 30.21875 26.65625 Z M 22.5625 18.96875 "/>
</g>
</svg>
