<?xml version="1.0" encoding="UTF-8"?>
<svg xmlns="http://www.w3.org/2000/svg" xmlns:xlink="http://www.w3.org/1999/xlink" viewBox="0 0 32 32" width="32px" height="32px">
<g id="surface707256">
<path style=" stroke:none;fill-rule:nonzero;fill:rgb(40.000001%,40.000001%,40.000001%);fill-opacity:1;" d="M 31 0 L 24 0 C 23.445312 0 23 0.445312 23 1 C 23 1.554688 23.445312 2 24 2 L 28.214844 2 L 18.710938 11.53125 C 18.320312 11.921875 18.320312 12.554688 18.714844 12.945312 C 18.910156 13.136719 19.164062 13.234375 19.421875 13.234375 C 19.675781 13.234375 19.933594 13.136719 20.128906 12.941406 L 30 3.042969 L 30 8 C 30 8.554688 30.445312 9 31 9 C 31.554688 9 32 8.554688 32 8 L 32 1 C 32 0.445312 31.554688 0 31 0 Z M 31 0 "/>
<path style=" stroke:none;fill-rule:nonzero;fill:rgb(40.000001%,40.000001%,40.000001%);fill-opacity:1;" d="M 1 32 L 7 32 C 7.554688 32 8 31.554688 8 31 C 8 30.445312 7.554688 30 7 30 L 3.121094 30 L 12.621094 20.46875 C 13.011719 20.078125 13.011719 19.445312 12.621094 19.054688 C 12.230469 18.667969 11.597656 18.664062 11.207031 19.058594 L 2 28.292969 L 2 24 C 2 23.445312 1.554688 23 1 23 C 0.445312 23 0 23.445312 0 24 L 0 31 C 0 31.554688 0.445312 32 1 32 Z M 1 32 "/>
</g>
</svg>
