<svg fill="#000000" xmlns="http://www.w3.org/2000/svg"  viewBox="0 0 50 50" width="50px" height="50px"><path d="M 25 7 C 24.847656 7 24.703125 7.023438 24.5625 7.09375 L 0.5625 19.09375 C 0.222656 19.265625 0 19.621094 0 20 C 0 20.378906 0.222656 20.734375 0.5625 20.90625 L 4 22.625 L 4 37.1875 C 2.84375 37.605469 2 38.699219 2 40 C 2 41.273438 3.53125 43.613281 4.1875 44.5625 L 5 45.75 L 5.8125 44.5625 C 6.46875 43.613281 8 41.273438 8 40 C 8 38.699219 7.15625 37.605469 6 37.1875 L 6 23.625 L 8 24.625 L 8 22 C 8 18.53125 12.992188 17.828125 15.125 17.53125 C 18.339844 17.085938 22.269531 17 25 17 C 27.730469 17 31.660156 17.085938 34.875 17.53125 C 37.007813 17.828125 42 18.53125 42 22 L 42 24.625 L 49.4375 20.90625 C 49.777344 20.738281 50 20.378906 50 20 C 50 19.621094 49.777344 19.265625 49.4375 19.09375 L 25.4375 7.09375 C 25.296875 7.023438 25.152344 7 25 7 Z M 25 19 C 19.398438 19 10 19.390625 10 22 L 10 26.65625 C 12.078125 25.769531 16.320313 25 25 25 C 33.679688 25 37.921875 25.769531 40 26.65625 L 40 22 C 40 19.390625 30.601563 19 25 19 Z M 25 27 C 14.609375 27 10.289063 28.222656 10 29 C 10.015625 31.601563 19.402344 32 25 32 C 30.480469 32 39.574219 31.617188 39.96875 29.15625 C 39.980469 29.097656 40 29.058594 40 29 C 39.730469 28.234375 35.414063 27 25 27 Z"/></svg>