<?xml version="1.0" encoding="UTF-8"?>
<svg xmlns="http://www.w3.org/2000/svg" xmlns:xlink="http://www.w3.org/1999/xlink" viewBox="0 0 50 50" width="50px" height="50px">
<g id="surface782466">
<path style=" stroke:none;fill-rule:nonzero;fill:rgb(94.901961%,51.764709%,50.980395%);fill-opacity:1;" d="M 12.984375 2.988281 C 12.433594 2.996094 11.992188 3.449219 12 4 L 12 5 L 9.898438 5 C 8.300781 5 7 6.320312 7 7.941406 L 7 44.058594 C 7 45.679688 8.300781 47 9.898438 47 L 40.097656 47 C 41.699219 47 43 45.679688 43 44.058594 L 43 7.941406 C 43 6.320312 41.699219 5 40.097656 5 L 39 5 L 39 8 C 39 8.550781 38.550781 9 38 9 C 37.824219 9 37.667969 8.941406 37.527344 8.863281 C 37.824219 8.679688 38.003906 8.351562 38 8 L 38 4 C 38.003906 3.730469 37.898438 3.46875 37.707031 3.277344 C 37.515625 3.085938 37.253906 2.980469 36.984375 2.988281 C 36.433594 2.996094 35.992188 3.449219 36 4 L 36 5 L 33 5 L 33 8 C 33 8.550781 32.550781 9 32 9 C 31.824219 9 31.667969 8.941406 31.527344 8.863281 C 31.824219 8.679688 32.003906 8.351562 32 8 L 32 4 C 32.003906 3.730469 31.898438 3.46875 31.707031 3.277344 C 31.515625 3.085938 31.253906 2.980469 30.984375 2.988281 C 30.433594 2.996094 29.992188 3.449219 30 4 L 30 5 L 27 5 L 27 8 C 27 8.550781 26.550781 9 26 9 C 25.824219 9 25.667969 8.941406 25.527344 8.863281 C 25.824219 8.679688 26.003906 8.351562 26 8 L 26 4 C 26.003906 3.730469 25.898438 3.46875 25.707031 3.277344 C 25.515625 3.085938 25.253906 2.980469 24.984375 2.988281 C 24.433594 2.996094 23.992188 3.449219 24 4 L 24 5 L 21 5 L 21 8 C 21 8.550781 20.550781 9 20 9 C 19.824219 9 19.667969 8.941406 19.527344 8.863281 C 19.824219 8.679688 20.003906 8.351562 20 8 L 20 4 C 20.003906 3.730469 19.898438 3.46875 19.707031 3.277344 C 19.515625 3.085938 19.253906 2.980469 18.984375 2.988281 C 18.433594 2.996094 17.992188 3.449219 18 4 L 18 5 L 15 5 L 15 8 C 15 8.550781 14.550781 9 14 9 C 13.824219 9 13.667969 8.941406 13.527344 8.863281 C 13.824219 8.679688 14.003906 8.351562 14 8 L 14 4 C 14.003906 3.730469 13.898438 3.46875 13.707031 3.277344 C 13.515625 3.085938 13.253906 2.980469 12.984375 2.988281 Z M 14 16 L 32 16 L 32 18 L 14 18 Z M 14 23 L 36 23 L 36 25 L 14 25 Z M 14 30 L 32 30 L 32 32 L 14 32 Z M 14 37 L 34 37 L 34 39 L 14 39 Z M 14 37 "/>
</g>
</svg>
