<?xml version="1.0" encoding="UTF-8"?>
<svg xmlns="http://www.w3.org/2000/svg" xmlns:xlink="http://www.w3.org/1999/xlink" viewBox="0 0 50 50" width="50px" height="50px">
<g id="surface1362158">
<path style=" stroke:none;fill-rule:nonzero;fill:rgb(100%,100%,100%);fill-opacity:1;" d="M 30 43 L 47 43 L 43 39 L 42.972656 10.503906 L 46.863281 6.015625 L 34.84375 6.015625 L 25.605469 28.742188 L 15.496094 6 L 3 6 L 7 11.089844 L 7 35.285156 L 1 43 L 15 43 L 9 35.285156 L 9 13.75 L 22 43 L 21.996094 43.015625 L 34 13.546875 L 34 39 Z M 10.910156 41 L 5.089844 41 L 8 37.257812 Z M 21.921875 37.898438 L 10.828125 12.9375 L 8.632812 8 L 14.195312 8 L 23.777344 29.554688 L 24.582031 31.367188 Z M 35.414062 40.414062 L 36 39.828125 L 36 8.484375 L 36.191406 8.015625 L 42.484375 8.015625 L 41.460938 9.195312 L 40.972656 9.761719 L 40.972656 10.507812 L 41 39.003906 L 41 39.828125 L 42.171875 41 L 34.828125 41 Z M 35.414062 40.414062 "/>
</g>
</svg>
