<?xml version="1.0" encoding="UTF-8"?><svg id="a" xmlns="http://www.w3.org/2000/svg" viewBox="0 0 48.38 48.38"><defs><style>.b{fill:#f28482;}</style></defs><path class="b" d="M24.19,0C10.83,0,0,10.83,0,24.19s10.83,24.19,24.19,24.19,24.19-10.83,24.19-24.19S37.55,0,24.19,0Zm0,7.33c3.84,0,6.95,3.11,6.95,6.95s-3.11,6.95-6.95,6.95-6.95-3.11-6.95-6.95,3.11-6.95,6.95-6.95Zm10.09,29.21c-2.77,2.73-6.15,4.58-10.04,4.5-3.62-.08-7.53-1.43-10.33-4.3-.57-.58-1.13-4.64-.21-8.59,1.19-5.11,5.6-3.8,10.67-3.8s8.69-.98,10.2,3.8c1.25,3.98,.21,7.9-.29,8.4Z"/></svg>